<svg width="183" height="40" viewBox="0 0 183 40" fill="none" xmlns="http://www.w3.org/2000/svg">
<path d="M68.576 14.464C70.24 14.464 71.56 14.968 72.536 15.976C73.528 16.984 74.024 18.384 74.024 20.176V28H69.944V20.728C69.944 19.864 69.712 19.2 69.248 18.736C68.8 18.256 68.176 18.016 67.376 18.016C66.576 18.016 65.944 18.256 65.48 18.736C65.032 19.2 64.808 19.864 64.808 20.728V28H60.728V20.728C60.728 19.864 60.496 19.2 60.032 18.736C59.584 18.256 58.96 18.016 58.16 18.016C57.36 18.016 56.728 18.256 56.264 18.736C55.816 19.2 55.592 19.864 55.592 20.728V28H51.488V14.608H55.592V16.288C56.008 15.728 56.552 15.288 57.224 14.968C57.896 14.632 58.656 14.464 59.504 14.464C60.512 14.464 61.408 14.68 62.192 15.112C62.992 15.544 63.616 16.16 64.064 16.96C64.528 16.224 65.16 15.624 65.96 15.16C66.76 14.696 67.632 14.464 68.576 14.464ZM90.5743 14.608L82.1743 34.36H77.7583L80.8303 27.544L75.3822 14.608H79.9663L83.0623 22.984L86.1343 14.608H90.5743ZM114.232 14.464C115.896 14.464 117.216 14.968 118.192 15.976C119.184 16.984 119.68 18.384 119.68 20.176V28H115.6V20.728C115.6 19.864 115.368 19.2 114.904 18.736C114.456 18.256 113.832 18.016 113.032 18.016C112.232 18.016 111.6 18.256 111.136 18.736C110.688 19.2 110.464 19.864 110.464 20.728V28H106.384V20.728C106.384 19.864 106.152 19.2 105.688 18.736C105.24 18.256 104.616 18.016 103.816 18.016C103.016 18.016 102.384 18.256 101.92 18.736C101.472 19.2 101.248 19.864 101.248 20.728V28H97.1443V14.608H101.248V16.288C101.664 15.728 102.208 15.288 102.88 14.968C103.552 14.632 104.312 14.464 105.16 14.464C106.168 14.464 107.064 14.68 107.848 15.112C108.648 15.544 109.272 16.16 109.72 16.96C110.184 16.224 110.816 15.624 111.616 15.16C112.416 14.696 113.288 14.464 114.232 14.464ZM128.647 28.192C127.335 28.192 126.151 27.912 125.095 27.352C124.055 26.792 123.231 25.992 122.623 24.952C122.031 23.912 121.735 22.696 121.735 21.304C121.735 19.928 122.039 18.72 122.646 17.68C123.255 16.624 124.087 15.816 125.143 15.256C126.199 14.696 127.383 14.416 128.695 14.416C130.007 14.416 131.191 14.696 132.247 15.256C133.303 15.816 134.135 16.624 134.743 17.68C135.351 18.72 135.655 19.928 135.655 21.304C135.655 22.68 135.343 23.896 134.719 24.952C134.111 25.992 133.271 26.792 132.199 27.352C131.143 27.912 129.959 28.192 128.647 28.192ZM128.647 24.64C129.431 24.64 130.095 24.352 130.639 23.776C131.199 23.2 131.479 22.376 131.479 21.304C131.479 20.232 131.207 19.408 130.663 18.832C130.135 18.256 129.479 17.968 128.695 17.968C127.895 17.968 127.231 18.256 126.703 18.832C126.175 19.392 125.911 20.216 125.911 21.304C125.911 22.376 126.167 23.2 126.679 23.776C127.207 24.352 127.863 24.64 128.647 24.64ZM145.992 14.464C147.56 14.464 148.808 14.976 149.736 16C150.68 17.008 151.152 18.4 151.152 20.176V28H147.072V20.728C147.072 19.832 146.84 19.136 146.376 18.64C145.912 18.144 145.288 17.896 144.504 17.896C143.72 17.896 143.096 18.144 142.632 18.64C142.168 19.136 141.936 19.832 141.936 20.728V28H137.832V14.608H141.936V16.384C142.352 15.792 142.912 15.328 143.616 14.992C144.32 14.64 145.112 14.464 145.992 14.464ZM166.628 21.088C166.628 21.472 166.604 21.872 166.556 22.288H157.268C157.332 23.12 157.596 23.76 158.06 24.208C158.54 24.64 159.124 24.856 159.812 24.856C160.836 24.856 161.548 24.424 161.948 23.56H166.316C166.092 24.44 165.684 25.232 165.092 25.936C164.516 26.64 163.788 27.192 162.908 27.592C162.028 27.992 161.044 28.192 159.956 28.192C158.644 28.192 157.476 27.912 156.452 27.352C155.428 26.792 154.628 25.992 154.052 24.952C153.476 23.912 153.188 22.696 153.188 21.304C153.188 19.912 153.468 18.696 154.028 17.656C154.604 16.616 155.404 15.816 156.428 15.256C157.452 14.696 158.628 14.416 159.956 14.416C161.252 14.416 162.404 14.688 163.412 15.232C164.42 15.776 165.204 16.552 165.764 17.56C166.34 18.568 166.628 19.744 166.628 21.088ZM162.428 20.008C162.428 19.304 162.188 18.744 161.708 18.328C161.228 17.912 160.628 17.704 159.908 17.704C159.22 17.704 158.636 17.904 158.156 18.304C157.692 18.704 157.404 19.272 157.292 20.008H162.428ZM182.473 14.608L174.073 34.36H169.657L172.729 27.544L167.281 14.608H171.865L174.961 22.984L178.033 14.608H182.473Z" fill="white"/>
<path d="M34.1422 5.85781C30.3647 2.08031 25.3422 0 20 0C14.6578 0 9.63531 2.08031 5.85781 5.85781C2.08031 9.63531 0 14.6578 0 20C0 25.3422 2.08039 30.3646 5.85781 34.1422C9.63523 37.9198 14.6578 40 20 40C25.3422 40 30.3647 37.9197 34.1422 34.1422C37.9197 30.3647 40 25.3422 40 20C40 14.6578 37.9196 9.63539 34.1422 5.85781Z" fill="#33CC95"/>
<g clip-path="url(#clip0)">
<path d="M20.5714 8V33.1429" stroke="white" stroke-width="2" stroke-linecap="round" stroke-linejoin="round"/>
<path d="M26.2857 12.5714H17.7142C16.6534 12.5714 15.636 12.9928 14.8858 13.743C14.1357 14.4931 13.7142 15.5105 13.7142 16.5714C13.7142 17.6323 14.1357 18.6497 14.8858 19.3998C15.636 20.15 16.6534 20.5714 17.7142 20.5714H23.4285C24.4894 20.5714 25.5068 20.9928 26.2569 21.743C27.0071 22.4931 27.4285 23.5105 27.4285 24.5714C27.4285 25.6323 27.0071 26.6497 26.2569 27.3998C25.5068 28.15 24.4894 28.5714 23.4285 28.5714H13.7142" stroke="white" stroke-width="2" stroke-linecap="round" stroke-linejoin="round"/>
</g>
<defs>
<clipPath id="clip0">
<rect width="27.4286" height="27.4286" fill="white" transform="translate(6.85712 6.85712)"/>
</clipPath>
</defs>
</svg>
